<svg xmlns="http://www.w3.org/2000/svg" xmlns:xlink="http://www.w3.org/1999/xlink" width="480" zoomAndPan="magnify" viewBox="0 0 360 374.999991" height="500" preserveAspectRatio="xMidYMid meet" version="1.0"><defs><clipPath id="b6b44c6520"><path d="M 32.183594 162 L 94 162 L 94 224 L 32.183594 224 Z M 32.183594 162 " clip-rule="nonzero"/></clipPath><clipPath id="df9fc9ffd2"><path d="M 177 80.085938 L 309 80.085938 L 309 213 L 177 213 Z M 177 80.085938 " clip-rule="nonzero"/></clipPath><clipPath id="5cd7df775d"><path d="M 176 80.085938 L 309 80.085938 L 309 213 L 176 213 Z M 176 80.085938 " clip-rule="nonzero"/></clipPath><clipPath id="e504f9d96a"><path d="M 177 80.085938 L 308 80.085938 L 308 96 L 177 96 Z M 177 80.085938 " clip-rule="nonzero"/></clipPath><clipPath id="51e129d14d"><path d="M 114 281 L 151 281 L 151 295.335938 L 114 295.335938 Z M 114 281 " clip-rule="nonzero"/></clipPath><clipPath id="80070c70a8"><path d="M 148 233 L 252 233 L 252 295.335938 L 148 295.335938 Z M 148 233 " clip-rule="nonzero"/></clipPath><clipPath id="18a17c82bb"><path d="M 147 233 L 249 233 L 249 295.335938 L 147 295.335938 Z M 147 233 " clip-rule="nonzero"/></clipPath><clipPath id="1297de2728"><path d="M 187 142 L 331.433594 142 L 331.433594 194 L 187 194 Z M 187 142 " clip-rule="nonzero"/></clipPath></defs><path fill="#d9d9d9" d="M 122.984375 77.226562 C 137.523438 73.003906 151.265625 66.453125 165.40625 61.027344 C 194.070312 50.039062 225.007812 43.675781 255.535156 46.867188 C 286.066406 50.058594 316.164062 63.492188 335.917969 86.988281 C 355.671875 110.484375 363.640625 144.503906 352.652344 173.171875 C 348.460938 184.113281 341.78125 193.964844 337.535156 204.890625 C 333.292969 215.816406 331.773438 228.785156 337.828125 238.824219 C 337.828125 238.824219 337.832031 238.828125 337.832031 238.832031 C 340.988281 244.070312 347.398438 253.273438 348.203125 259.203125 C 348.574219 261.933594 347.726562 264.691406 346.574219 267.195312 C 334.785156 292.75 293.890625 290.328125 270.996094 285.269531 C 260.582031 282.96875 250.308594 279.683594 239.667969 278.949219 C 229.03125 278.214844 217.621094 280.394531 209.816406 287.660156 C 201.058594 295.804688 198.375 308.691406 190.578125 317.761719 C 183.199219 326.347656 171.757812 330.707031 160.460938 331.386719 C 149.164062 332.070312 137.917969 329.421875 127.15625 325.914062 C 89.15625 313.519531 55.585938 290.496094 23.871094 266.171875 C 12.410156 257.386719 0.03125 246.21875 0.363281 231.78125 C 0.726562 216.125 15.855469 204.996094 21.050781 190.222656 C 28.949219 167.746094 12.457031 144.207031 11.46875 120.40625 C 10.808594 104.449219 17.832031 88.441406 29.660156 77.777344 C 44.828125 64.097656 60.199219 73.21875 76.902344 78.574219 C 91.539062 83.265625 107.550781 81.625 122.332031 77.414062 C 122.550781 77.351562 122.765625 77.289062 122.984375 77.226562 " fill-opacity="1" fill-rule="nonzero"/><g clip-path="url(#b6b44c6520)"><path fill="#202020" d="M 93.09375 192.734375 C 93.09375 193.730469 93.046875 194.726562 92.949219 195.71875 C 92.851562 196.710938 92.703125 197.695312 92.511719 198.671875 C 92.316406 199.652344 92.074219 200.617188 91.785156 201.570312 C 91.496094 202.523438 91.160156 203.460938 90.777344 204.382812 C 90.394531 205.304688 89.96875 206.207031 89.5 207.085938 C 89.03125 207.964844 88.519531 208.816406 87.964844 209.648438 C 87.410156 210.476562 86.816406 211.277344 86.183594 212.046875 C 85.550781 212.816406 84.882812 213.554688 84.179688 214.261719 C 83.472656 214.964844 82.734375 215.636719 81.964844 216.265625 C 81.195312 216.898438 80.394531 217.492188 79.566406 218.046875 C 78.734375 218.601562 77.882812 219.113281 77 219.582031 C 76.121094 220.054688 75.222656 220.480469 74.300781 220.859375 C 73.378906 221.242188 72.441406 221.578125 71.488281 221.867188 C 70.535156 222.15625 69.566406 222.398438 68.589844 222.59375 C 67.613281 222.789062 66.625 222.933594 65.632812 223.03125 C 64.640625 223.128906 63.648438 223.179688 62.648438 223.179688 C 61.652344 223.179688 60.660156 223.128906 59.667969 223.03125 C 58.675781 222.933594 57.6875 222.789062 56.710938 222.59375 C 55.734375 222.398438 54.765625 222.15625 53.8125 221.867188 C 52.859375 221.578125 51.921875 221.242188 51 220.859375 C 50.078125 220.480469 49.179688 220.054688 48.296875 219.582031 C 47.417969 219.113281 46.566406 218.601562 45.734375 218.046875 C 44.90625 217.492188 44.105469 216.898438 43.335938 216.265625 C 42.566406 215.632812 41.828125 214.964844 41.121094 214.261719 C 40.417969 213.554688 39.75 212.816406 39.117188 212.046875 C 38.484375 211.277344 37.890625 210.476562 37.335938 209.648438 C 36.78125 208.816406 36.269531 207.964844 35.800781 207.085938 C 35.332031 206.207031 34.90625 205.304688 34.523438 204.382812 C 34.140625 203.460938 33.804688 202.523438 33.515625 201.570312 C 33.226562 200.617188 32.984375 199.652344 32.789062 198.671875 C 32.597656 197.695312 32.449219 196.710938 32.351562 195.71875 C 32.253906 194.726562 32.207031 193.730469 32.207031 192.734375 C 32.207031 191.734375 32.253906 190.742188 32.351562 189.75 C 32.449219 188.757812 32.597656 187.773438 32.789062 186.792969 C 32.984375 185.816406 33.226562 184.847656 33.515625 183.894531 C 33.804688 182.941406 34.140625 182.003906 34.523438 181.082031 C 34.90625 180.160156 35.332031 179.261719 35.800781 178.382812 C 36.269531 177.503906 36.78125 176.648438 37.335938 175.820312 C 37.890625 174.988281 38.484375 174.191406 39.117188 173.417969 C 39.75 172.648438 40.417969 171.910156 41.121094 171.207031 C 41.828125 170.5 42.566406 169.832031 43.335938 169.199219 C 44.105469 168.566406 44.90625 167.972656 45.734375 167.417969 C 46.566406 166.863281 47.417969 166.351562 48.296875 165.882812 C 49.179688 165.414062 50.078125 164.988281 51 164.605469 C 51.921875 164.222656 52.859375 163.886719 53.8125 163.597656 C 54.765625 163.308594 55.734375 163.066406 56.710938 162.875 C 57.6875 162.679688 58.675781 162.53125 59.667969 162.433594 C 60.660156 162.335938 61.652344 162.289062 62.648438 162.289062 C 63.648438 162.289062 64.640625 162.335938 65.632812 162.433594 C 66.625 162.53125 67.613281 162.679688 68.589844 162.875 C 69.566406 163.066406 70.535156 163.308594 71.488281 163.597656 C 72.441406 163.886719 73.378906 164.222656 74.300781 164.605469 C 75.222656 164.988281 76.121094 165.414062 77 165.882812 C 77.882812 166.351562 78.734375 166.863281 79.566406 167.417969 C 80.394531 167.972656 81.195312 168.566406 81.964844 169.199219 C 82.734375 169.832031 83.472656 170.5 84.179688 171.207031 C 84.882812 171.910156 85.550781 172.648438 86.183594 173.417969 C 86.816406 174.191406 87.410156 174.988281 87.964844 175.820312 C 88.519531 176.648438 89.03125 177.503906 89.5 178.382812 C 89.96875 179.261719 90.394531 180.160156 90.777344 181.082031 C 91.160156 182.003906 91.496094 182.941406 91.785156 183.894531 C 92.074219 184.847656 92.316406 185.816406 92.511719 186.792969 C 92.703125 187.773438 92.851562 188.757812 92.949219 189.75 C 93.046875 190.742188 93.09375 191.734375 93.09375 192.734375 Z M 93.09375 192.734375 " fill-opacity="1" fill-rule="nonzero"/></g><path fill="#202020" d="M 46.722656 159.097656 L 54.007812 156.535156 L 56.941406 164.875 L 49.65625 167.4375 Z M 46.722656 159.097656 " fill-opacity="1" fill-rule="nonzero"/><path fill="#202020" d="M 43.996094 158.570312 L 55.796875 154.417969 L 57.035156 157.9375 L 45.234375 162.089844 Z M 43.996094 158.570312 " fill-opacity="1" fill-rule="nonzero"/><path fill="#202020" d="M 46.746094 156.253906 L 44 158.5625 L 45.238281 162.085938 L 47.984375 159.769531 Z M 46.746094 156.253906 " fill-opacity="1" fill-rule="nonzero"/><path fill="#e7495a" d="M 95.839844 190.417969 C 95.839844 191.414062 95.792969 192.410156 95.695312 193.402344 C 95.597656 194.394531 95.449219 195.378906 95.257812 196.355469 C 95.0625 197.335938 94.820312 198.300781 94.53125 199.253906 C 94.242188 200.210938 93.90625 201.148438 93.523438 202.066406 C 93.140625 202.988281 92.714844 203.890625 92.246094 204.769531 C 91.777344 205.648438 91.265625 206.503906 90.710938 207.332031 C 90.15625 208.160156 89.5625 208.960938 88.929688 209.730469 C 88.296875 210.503906 87.628906 211.238281 86.925781 211.945312 C 86.21875 212.648438 85.480469 213.320312 84.710938 213.953125 C 83.941406 214.585938 83.140625 215.175781 82.3125 215.730469 C 81.480469 216.285156 80.628906 216.796875 79.75 217.265625 C 78.867188 217.738281 77.96875 218.164062 77.046875 218.542969 C 76.125 218.925781 75.1875 219.261719 74.234375 219.550781 C 73.28125 219.839844 72.3125 220.082031 71.335938 220.277344 C 70.359375 220.472656 69.375 220.617188 68.378906 220.714844 C 67.386719 220.8125 66.394531 220.863281 65.398438 220.863281 C 64.398438 220.863281 63.40625 220.8125 62.414062 220.714844 C 61.421875 220.617188 60.433594 220.472656 59.457031 220.277344 C 58.480469 220.082031 57.511719 219.839844 56.558594 219.550781 C 55.605469 219.261719 54.667969 218.925781 53.746094 218.542969 C 52.824219 218.164062 51.925781 217.738281 51.046875 217.265625 C 50.164062 216.796875 49.3125 216.285156 48.480469 215.730469 C 47.652344 215.175781 46.851562 214.585938 46.082031 213.953125 C 45.3125 213.320312 44.574219 212.648438 43.867188 211.945312 C 43.164062 211.238281 42.496094 210.503906 41.863281 209.730469 C 41.230469 208.960938 40.636719 208.160156 40.082031 207.332031 C 39.527344 206.503906 39.015625 205.648438 38.546875 204.769531 C 38.078125 203.890625 37.652344 202.988281 37.269531 202.066406 C 36.886719 201.148438 36.550781 200.210938 36.261719 199.253906 C 35.972656 198.300781 35.730469 197.335938 35.535156 196.355469 C 35.34375 195.378906 35.195312 194.394531 35.097656 193.402344 C 35 192.410156 34.953125 191.414062 34.953125 190.417969 C 34.953125 189.421875 35 188.425781 35.097656 187.433594 C 35.195312 186.441406 35.34375 185.457031 35.535156 184.476562 C 35.730469 183.5 35.972656 182.535156 36.261719 181.578125 C 36.550781 180.625 36.886719 179.6875 37.269531 178.765625 C 37.652344 177.84375 38.078125 176.945312 38.546875 176.066406 C 39.015625 175.1875 39.527344 174.332031 40.082031 173.503906 C 40.636719 172.675781 41.230469 171.875 41.863281 171.101562 C 42.496094 170.332031 43.164062 169.59375 43.867188 168.890625 C 44.574219 168.183594 45.3125 167.515625 46.082031 166.882812 C 46.851562 166.25 47.652344 165.65625 48.480469 165.101562 C 49.3125 164.550781 50.164062 164.039062 51.046875 163.566406 C 51.925781 163.097656 52.824219 162.671875 53.746094 162.289062 C 54.667969 161.910156 55.605469 161.574219 56.558594 161.285156 C 57.511719 160.992188 58.480469 160.75 59.457031 160.558594 C 60.433594 160.363281 61.421875 160.214844 62.414062 160.117188 C 63.40625 160.019531 64.398438 159.972656 65.398438 159.972656 C 66.394531 159.972656 67.386719 160.019531 68.378906 160.117188 C 69.375 160.214844 70.359375 160.363281 71.335938 160.558594 C 72.3125 160.75 73.28125 160.992188 74.234375 161.285156 C 75.1875 161.574219 76.125 161.910156 77.046875 162.289062 C 77.96875 162.671875 78.867188 163.097656 79.75 163.566406 C 80.628906 164.039062 81.480469 164.550781 82.3125 165.101562 C 83.140625 165.65625 83.941406 166.25 84.710938 166.882812 C 85.480469 167.515625 86.21875 168.183594 86.925781 168.890625 C 87.628906 169.59375 88.296875 170.332031 88.929688 171.101562 C 89.5625 171.875 90.15625 172.675781 90.710938 173.503906 C 91.265625 174.332031 91.777344 175.1875 92.246094 176.066406 C 92.714844 176.945312 93.140625 177.84375 93.523438 178.765625 C 93.90625 179.6875 94.242188 180.625 94.53125 181.578125 C 94.820312 182.535156 95.0625 183.5 95.257812 184.476562 C 95.449219 185.457031 95.597656 186.441406 95.695312 187.433594 C 95.792969 188.425781 95.839844 189.421875 95.839844 190.417969 Z M 95.839844 190.417969 " fill-opacity="1" fill-rule="nonzero"/><path fill="#ffffff" d="M 88.984375 190.417969 C 88.984375 191.191406 88.949219 191.960938 88.871094 192.730469 C 88.796875 193.5 88.683594 194.261719 88.53125 195.019531 C 88.382812 195.777344 88.195312 196.523438 87.96875 197.265625 C 87.746094 198.003906 87.484375 198.730469 87.191406 199.445312 C 86.894531 200.15625 86.5625 200.855469 86.199219 201.535156 C 85.835938 202.21875 85.4375 202.878906 85.011719 203.523438 C 84.582031 204.164062 84.121094 204.785156 83.632812 205.382812 C 83.140625 205.980469 82.621094 206.550781 82.078125 207.097656 C 81.53125 207.644531 80.957031 208.160156 80.359375 208.652344 C 79.765625 209.140625 79.144531 209.601562 78.5 210.03125 C 77.859375 210.460938 77.199219 210.855469 76.515625 211.21875 C 75.835938 211.585938 75.136719 211.914062 74.421875 212.210938 C 73.710938 212.507812 72.984375 212.765625 72.242188 212.992188 C 71.503906 213.214844 70.757812 213.402344 70 213.554688 C 69.242188 213.703125 68.476562 213.816406 67.707031 213.890625 C 66.941406 213.96875 66.167969 214.007812 65.398438 214.007812 C 64.625 214.007812 63.851562 213.96875 63.085938 213.890625 C 62.316406 213.816406 61.550781 213.703125 60.792969 213.554688 C 60.035156 213.402344 59.289062 213.214844 58.550781 212.992188 C 57.808594 212.765625 57.082031 212.507812 56.371094 212.210938 C 55.65625 211.914062 54.957031 211.585938 54.277344 211.21875 C 53.59375 210.855469 52.933594 210.460938 52.292969 210.03125 C 51.648438 209.601562 51.03125 209.140625 50.433594 208.652344 C 49.835938 208.160156 49.261719 207.644531 48.71875 207.097656 C 48.171875 206.550781 47.652344 205.980469 47.164062 205.382812 C 46.671875 204.785156 46.210938 204.164062 45.785156 203.523438 C 45.355469 202.878906 44.957031 202.21875 44.59375 201.535156 C 44.230469 200.855469 43.898438 200.15625 43.601562 199.445312 C 43.308594 198.730469 43.046875 198.003906 42.824219 197.265625 C 42.597656 196.523438 42.410156 195.777344 42.261719 195.019531 C 42.109375 194.261719 41.996094 193.5 41.921875 192.730469 C 41.847656 191.960938 41.808594 191.191406 41.808594 190.417969 C 41.808594 189.644531 41.847656 188.875 41.921875 188.105469 C 41.996094 187.335938 42.109375 186.574219 42.261719 185.816406 C 42.410156 185.058594 42.597656 184.308594 42.824219 183.570312 C 43.046875 182.832031 43.308594 182.105469 43.601562 181.390625 C 43.898438 180.675781 44.230469 179.980469 44.59375 179.296875 C 44.957031 178.617188 45.355469 177.953125 45.785156 177.3125 C 46.210938 176.667969 46.671875 176.050781 47.164062 175.453125 C 47.652344 174.855469 48.171875 174.285156 48.71875 173.738281 C 49.261719 173.191406 49.835938 172.671875 50.433594 172.183594 C 51.03125 171.691406 51.648438 171.234375 52.292969 170.804688 C 52.933594 170.375 53.59375 169.976562 54.277344 169.613281 C 54.957031 169.25 55.65625 168.917969 56.371094 168.625 C 57.082031 168.328125 57.808594 168.070312 58.550781 167.84375 C 59.289062 167.621094 60.035156 167.433594 60.792969 167.28125 C 61.550781 167.132812 62.316406 167.019531 63.085938 166.941406 C 63.851562 166.867188 64.625 166.828125 65.398438 166.828125 C 66.167969 166.828125 66.941406 166.867188 67.707031 166.941406 C 68.476562 167.019531 69.242188 167.132812 70 167.28125 C 70.757812 167.433594 71.503906 167.621094 72.242188 167.84375 C 72.984375 168.070312 73.710938 168.328125 74.421875 168.625 C 75.136719 168.917969 75.835938 169.25 76.515625 169.613281 C 77.199219 169.976562 77.859375 170.375 78.5 170.804688 C 79.144531 171.234375 79.765625 171.691406 80.359375 172.183594 C 80.957031 172.671875 81.53125 173.191406 82.078125 173.738281 C 82.621094 174.285156 83.140625 174.855469 83.632812 175.453125 C 84.121094 176.050781 84.582031 176.667969 85.011719 177.3125 C 85.4375 177.953125 85.835938 178.617188 86.199219 179.296875 C 86.5625 179.980469 86.894531 180.675781 87.191406 181.390625 C 87.484375 182.105469 87.746094 182.832031 87.96875 183.570312 C 88.195312 184.308594 88.382812 185.058594 88.53125 185.816406 C 88.683594 186.574219 88.796875 187.335938 88.871094 188.105469 C 88.949219 188.875 88.984375 189.644531 88.984375 190.417969 Z M 88.984375 190.417969 " fill-opacity="1" fill-rule="nonzero"/><path fill="#ffffff" d="M 72.128906 190.417969 C 72.128906 190.859375 72.085938 191.296875 72 191.730469 C 71.914062 192.164062 71.785156 192.585938 71.617188 192.992188 C 71.445312 193.402344 71.238281 193.789062 70.996094 194.15625 C 70.75 194.523438 70.46875 194.863281 70.15625 195.175781 C 69.84375 195.488281 69.503906 195.769531 69.136719 196.015625 C 68.769531 196.261719 68.382812 196.46875 67.972656 196.636719 C 67.566406 196.804688 67.144531 196.933594 66.710938 197.019531 C 66.277344 197.105469 65.839844 197.148438 65.398438 197.148438 C 64.953125 197.148438 64.515625 197.105469 64.082031 197.019531 C 63.648438 196.933594 63.230469 196.804688 62.820312 196.636719 C 62.410156 196.46875 62.023438 196.261719 61.65625 196.015625 C 61.289062 195.769531 60.949219 195.488281 60.636719 195.175781 C 60.324219 194.863281 60.042969 194.523438 59.800781 194.15625 C 59.554688 193.789062 59.347656 193.402344 59.175781 192.992188 C 59.007812 192.585938 58.878906 192.164062 58.792969 191.730469 C 58.707031 191.296875 58.664062 190.859375 58.664062 190.417969 C 58.664062 189.976562 58.707031 189.539062 58.792969 189.105469 C 58.878906 188.671875 59.007812 188.25 59.175781 187.839844 C 59.347656 187.433594 59.554688 187.042969 59.800781 186.675781 C 60.042969 186.308594 60.324219 185.96875 60.636719 185.65625 C 60.949219 185.34375 61.289062 185.066406 61.65625 184.820312 C 62.023438 184.574219 62.410156 184.367188 62.820312 184.199219 C 63.230469 184.027344 63.648438 183.902344 64.082031 183.8125 C 64.515625 183.726562 64.953125 183.683594 65.398438 183.683594 C 65.839844 183.683594 66.277344 183.726562 66.710938 183.8125 C 67.144531 183.902344 67.566406 184.027344 67.972656 184.199219 C 68.382812 184.367188 68.769531 184.574219 69.136719 184.820312 C 69.503906 185.066406 69.84375 185.34375 70.15625 185.65625 C 70.46875 185.96875 70.75 186.308594 70.996094 186.675781 C 71.238281 187.042969 71.445312 187.433594 71.617188 187.839844 C 71.785156 188.25 71.914062 188.671875 72 189.105469 C 72.085938 189.539062 72.128906 189.976562 72.128906 190.417969 Z M 72.128906 190.417969 " fill-opacity="1" fill-rule="nonzero"/><path fill="#ffffff" d="M 70.046875 190.417969 C 70.046875 190.722656 70.019531 191.023438 69.957031 191.324219 C 69.898438 191.625 69.8125 191.914062 69.695312 192.195312 C 69.578125 192.480469 69.433594 192.746094 69.265625 193 C 69.09375 193.253906 68.902344 193.488281 68.6875 193.707031 C 68.46875 193.921875 68.234375 194.113281 67.980469 194.285156 C 67.726562 194.453125 67.457031 194.597656 67.175781 194.714844 C 66.894531 194.832031 66.605469 194.917969 66.304688 194.980469 C 66.003906 195.039062 65.703125 195.070312 65.398438 195.070312 C 65.089844 195.070312 64.789062 195.039062 64.488281 194.980469 C 64.191406 194.917969 63.898438 194.832031 63.617188 194.714844 C 63.335938 194.597656 63.066406 194.453125 62.8125 194.285156 C 62.558594 194.113281 62.324219 193.921875 62.109375 193.707031 C 61.890625 193.488281 61.699219 193.253906 61.53125 193 C 61.359375 192.746094 61.214844 192.480469 61.097656 192.195312 C 60.984375 191.914062 60.894531 191.625 60.835938 191.324219 C 60.773438 191.023438 60.746094 190.722656 60.746094 190.417969 C 60.746094 190.113281 60.773438 189.808594 60.835938 189.511719 C 60.894531 189.210938 60.984375 188.917969 61.097656 188.636719 C 61.214844 188.355469 61.359375 188.085938 61.53125 187.832031 C 61.699219 187.578125 61.890625 187.34375 62.109375 187.128906 C 62.324219 186.914062 62.558594 186.71875 62.8125 186.550781 C 63.066406 186.378906 63.335938 186.238281 63.617188 186.121094 C 63.898438 186.003906 64.191406 185.914062 64.488281 185.855469 C 64.789062 185.796875 65.089844 185.765625 65.398438 185.765625 C 65.703125 185.765625 66.003906 185.796875 66.304688 185.855469 C 66.605469 185.914062 66.894531 186.003906 67.175781 186.121094 C 67.457031 186.238281 67.726562 186.378906 67.980469 186.550781 C 68.234375 186.71875 68.46875 186.914062 68.6875 187.128906 C 68.902344 187.34375 69.09375 187.578125 69.265625 187.832031 C 69.433594 188.085938 69.578125 188.355469 69.695312 188.636719 C 69.8125 188.917969 69.898438 189.210938 69.957031 189.511719 C 70.019531 189.808594 70.046875 190.113281 70.046875 190.417969 Z M 70.046875 190.417969 " fill-opacity="1" fill-rule="nonzero"/><path fill="#202020" d="M 71.136719 207.859375 L 71.828125 207.617188 L 73.078125 211.175781 L 72.390625 211.417969 Z M 71.136719 207.859375 " fill-opacity="1" fill-rule="nonzero"/><path fill="#202020" d="M 60.957031 212.082031 L 61.65625 208.378906 L 62.375 208.511719 L 61.675781 212.21875 Z M 60.957031 212.082031 " fill-opacity="1" fill-rule="nonzero"/><path fill="#202020" d="M 50.722656 206.976562 L 53.175781 204.113281 L 53.730469 204.589844 L 51.277344 207.453125 Z M 50.722656 206.976562 " fill-opacity="1" fill-rule="nonzero"/><path fill="#202020" d="M 44.394531 197.425781 L 47.949219 196.171875 L 48.191406 196.863281 L 44.636719 198.113281 Z M 44.394531 197.425781 " fill-opacity="1" fill-rule="nonzero"/><path fill="#202020" d="M 43.582031 186.707031 L 43.71875 185.988281 L 47.425781 186.683594 L 47.289062 187.402344 Z M 43.582031 186.707031 " fill-opacity="1" fill-rule="nonzero"/><path fill="#202020" d="M 48.363281 176.308594 L 48.839844 175.753906 L 51.699219 178.207031 L 51.226562 178.761719 Z M 48.363281 176.308594 " fill-opacity="1" fill-rule="nonzero"/><path fill="#202020" d="M 57.710938 169.671875 L 58.398438 169.429688 L 59.648438 172.984375 L 58.960938 173.226562 Z M 57.710938 169.671875 " fill-opacity="1" fill-rule="nonzero"/><path fill="#202020" d="M 68.421875 172.296875 L 69.113281 168.59375 L 69.832031 168.726562 L 69.136719 172.433594 Z M 68.421875 172.296875 " fill-opacity="1" fill-rule="nonzero"/><path fill="#202020" d="M 77.070312 176.242188 L 79.527344 173.378906 L 80.082031 173.855469 L 77.625 176.71875 Z M 77.070312 176.242188 " fill-opacity="1" fill-rule="nonzero"/><path fill="#202020" d="M 82.597656 183.980469 L 86.15625 182.730469 L 86.398438 183.421875 L 82.84375 184.671875 Z M 82.597656 183.980469 " fill-opacity="1" fill-rule="nonzero"/><path fill="#202020" d="M 83.371094 194.164062 L 83.507812 193.445312 L 87.214844 194.140625 L 87.078125 194.859375 Z M 83.371094 194.164062 " fill-opacity="1" fill-rule="nonzero"/><path fill="#202020" d="M 79.09375 202.644531 L 79.570312 202.089844 L 82.433594 204.546875 L 81.957031 205.101562 Z M 79.09375 202.644531 " fill-opacity="1" fill-rule="nonzero"/><path fill="#e7495a" d="M 49.464844 156.792969 L 56.753906 154.230469 L 59.683594 162.566406 L 52.398438 165.128906 Z M 49.464844 156.792969 " fill-opacity="1" fill-rule="nonzero"/><path fill="#e7495a" d="M 46.746094 156.261719 L 58.550781 152.109375 L 59.789062 155.628906 L 47.984375 159.78125 Z M 46.746094 156.261719 " fill-opacity="1" fill-rule="nonzero"/><path fill="#202020" d="M 65.851562 190.933594 L 65.4375 189.730469 L 81.152344 184.710938 L 81.253906 185.007812 Z M 65.851562 190.933594 " fill-opacity="1" fill-rule="nonzero"/><path fill="#202020" d="M 66.230469 190.878906 L 65.03125 191.296875 L 60.015625 175.582031 L 60.308594 175.480469 Z M 66.230469 190.878906 " fill-opacity="1" fill-rule="nonzero"/><path fill="#202020" d="M 67.59375 190.417969 C 67.59375 190.707031 67.539062 190.988281 67.425781 191.257812 C 67.316406 191.527344 67.15625 191.765625 66.949219 191.972656 C 66.746094 192.179688 66.507812 192.335938 66.238281 192.449219 C 65.96875 192.558594 65.6875 192.617188 65.398438 192.617188 C 65.105469 192.617188 64.824219 192.558594 64.554688 192.449219 C 64.285156 192.335938 64.046875 192.179688 63.84375 191.972656 C 63.636719 191.765625 63.476562 191.527344 63.367188 191.257812 C 63.253906 190.988281 63.199219 190.707031 63.199219 190.417969 C 63.199219 190.125 63.253906 189.84375 63.367188 189.574219 C 63.476562 189.304688 63.636719 189.070312 63.84375 188.863281 C 64.046875 188.65625 64.285156 188.496094 64.554688 188.386719 C 64.824219 188.273438 65.105469 188.21875 65.398438 188.21875 C 65.6875 188.21875 65.96875 188.273438 66.238281 188.386719 C 66.507812 188.496094 66.746094 188.65625 66.949219 188.863281 C 67.15625 189.070312 67.316406 189.304688 67.425781 189.574219 C 67.539062 189.84375 67.59375 190.125 67.59375 190.417969 Z M 67.59375 190.417969 " fill-opacity="1" fill-rule="nonzero"/><g clip-path="url(#df9fc9ffd2)"><path fill="#ffffff" d="M 182.863281 212.589844 C 181.285156 212.589844 179.824219 211.996094 178.753906 210.925781 C 177.683594 209.855469 177.097656 208.394531 177.097656 206.824219 L 177.351562 95.300781 L 177.382812 87.125 C 177.382812 83.480469 180.496094 80.394531 184.164062 80.394531 L 302.554688 80.394531 C 304.136719 80.394531 305.597656 80.988281 306.671875 82.0625 C 307.742188 83.132812 308.324219 84.585938 308.316406 86.152344 L 308.285156 97.335938 L 308.035156 205.851562 C 308.035156 209.5 304.925781 212.582031 301.257812 212.582031 L 182.863281 212.582031 Z M 182.863281 212.589844 " fill-opacity="1" fill-rule="nonzero"/></g><g clip-path="url(#5cd7df775d)"><path fill="#2a70c0" d="M 302.5625 80.71875 C 305.640625 80.71875 308.011719 83.082031 307.996094 86.152344 L 307.96875 95.300781 L 307.96875 97.339844 C 307.96875 97.339844 307.714844 205.859375 307.714844 205.859375 C 307.714844 209.300781 304.726562 212.265625 301.265625 212.265625 L 182.871094 212.265625 C 179.785156 212.265625 177.421875 209.894531 177.429688 206.824219 L 177.683594 97.339844 L 177.683594 95.300781 C 177.683594 95.300781 177.722656 87.125 177.722656 87.125 C 177.722656 83.675781 180.710938 80.71875 184.175781 80.71875 L 302.570312 80.71875 Z M 302.5625 80.066406 L 184.167969 80.066406 C 180.328125 80.066406 177.070312 83.296875 177.066406 87.125 L 177.03125 95.292969 L 177.03125 97.335938 C 177.03125 97.335938 176.777344 206.816406 176.777344 206.816406 C 176.777344 208.480469 177.398438 210.019531 178.527344 211.148438 C 179.660156 212.285156 181.199219 212.910156 182.871094 212.910156 L 301.265625 212.910156 C 305.105469 212.910156 308.363281 209.679688 308.367188 205.851562 L 308.625 97.335938 L 308.625 95.292969 C 308.625 95.292969 308.65625 86.148438 308.65625 86.148438 C 308.65625 84.488281 308.042969 82.957031 306.914062 81.820312 C 305.777344 80.679688 304.238281 80.054688 302.570312 80.054688 Z M 302.5625 80.066406 " fill-opacity="1" fill-rule="nonzero"/></g><g clip-path="url(#e504f9d96a)"><path fill="#2a70c0" d="M 307.996094 86.152344 L 307.964844 95.300781 L 177.679688 95.300781 L 177.710938 87.125 C 177.710938 83.675781 180.699219 80.71875 184.164062 80.71875 L 302.554688 80.71875 C 305.636719 80.71875 308.003906 83.082031 307.992188 86.152344 Z M 307.996094 86.152344 " fill-opacity="1" fill-rule="nonzero"/></g><path fill="#ffffff" d="M 188.03125 87.980469 C 188.03125 88.199219 187.988281 88.414062 187.902344 88.617188 C 187.820312 88.820312 187.699219 89 187.542969 89.15625 C 187.386719 89.3125 187.207031 89.433594 187.003906 89.515625 C 186.800781 89.601562 186.585938 89.644531 186.367188 89.644531 C 186.148438 89.644531 185.933594 89.601562 185.730469 89.515625 C 185.527344 89.433594 185.347656 89.3125 185.191406 89.15625 C 185.035156 89 184.914062 88.820312 184.832031 88.617188 C 184.746094 88.414062 184.703125 88.199219 184.703125 87.980469 C 184.703125 87.757812 184.746094 87.546875 184.832031 87.34375 C 184.914062 87.140625 185.035156 86.960938 185.191406 86.804688 C 185.347656 86.648438 185.527344 86.527344 185.730469 86.441406 C 185.933594 86.359375 186.148438 86.316406 186.367188 86.316406 C 186.585938 86.316406 186.800781 86.359375 187.003906 86.441406 C 187.207031 86.527344 187.386719 86.648438 187.542969 86.804688 C 187.699219 86.960938 187.820312 87.140625 187.902344 87.34375 C 187.988281 87.546875 188.03125 87.757812 188.03125 87.980469 Z M 188.03125 87.980469 " fill-opacity="1" fill-rule="nonzero"/><path fill="#ffffff" d="M 203.648438 87.980469 C 203.648438 88.199219 203.605469 88.414062 203.519531 88.617188 C 203.4375 88.820312 203.316406 89 203.160156 89.15625 C 203.003906 89.3125 202.824219 89.433594 202.621094 89.515625 C 202.417969 89.601562 202.203125 89.644531 201.984375 89.644531 C 201.765625 89.644531 201.550781 89.601562 201.347656 89.515625 C 201.144531 89.433594 200.964844 89.3125 200.808594 89.15625 C 200.652344 89 200.53125 88.820312 200.449219 88.617188 C 200.363281 88.414062 200.320312 88.199219 200.320312 87.980469 C 200.320312 87.757812 200.363281 87.546875 200.449219 87.34375 C 200.53125 87.140625 200.652344 86.960938 200.808594 86.804688 C 200.964844 86.648438 201.144531 86.527344 201.347656 86.441406 C 201.550781 86.359375 201.765625 86.316406 201.984375 86.316406 C 202.203125 86.316406 202.417969 86.359375 202.621094 86.441406 C 202.824219 86.527344 203.003906 86.648438 203.160156 86.804688 C 203.316406 86.960938 203.4375 87.140625 203.519531 87.34375 C 203.605469 87.546875 203.648438 87.757812 203.648438 87.980469 Z M 203.648438 87.980469 " fill-opacity="1" fill-rule="nonzero"/><path fill="#ffffff" d="M 195.839844 87.980469 C 195.839844 88.199219 195.796875 88.414062 195.710938 88.617188 C 195.628906 88.820312 195.507812 89 195.351562 89.15625 C 195.195312 89.3125 195.015625 89.433594 194.8125 89.515625 C 194.609375 89.601562 194.394531 89.644531 194.175781 89.644531 C 193.957031 89.644531 193.742188 89.601562 193.539062 89.515625 C 193.335938 89.433594 193.15625 89.3125 193 89.15625 C 192.84375 89 192.722656 88.820312 192.640625 88.617188 C 192.554688 88.414062 192.511719 88.199219 192.511719 87.980469 C 192.511719 87.757812 192.554688 87.546875 192.640625 87.34375 C 192.722656 87.140625 192.84375 86.960938 193 86.804688 C 193.15625 86.648438 193.335938 86.527344 193.539062 86.441406 C 193.742188 86.359375 193.957031 86.316406 194.175781 86.316406 C 194.394531 86.316406 194.609375 86.359375 194.8125 86.441406 C 195.015625 86.527344 195.195312 86.648438 195.351562 86.804688 C 195.507812 86.960938 195.628906 87.140625 195.710938 87.34375 C 195.796875 87.546875 195.839844 87.757812 195.839844 87.980469 Z M 195.839844 87.980469 " fill-opacity="1" fill-rule="nonzero"/><path fill="#202020" d="M 102.9375 167.011719 C 103.441406 167.082031 143.585938 175.238281 149.660156 174.1875 C 155.734375 173.136719 153.496094 138.054688 153.496094 138.054688 L 141.425781 120.980469 C 141.425781 120.980469 127.8125 117.199219 127.199219 117.882812 C 126.585938 118.566406 106.886719 135.398438 106.886719 135.398438 C 106.886719 135.398438 100.425781 152.351562 100.53125 153.402344 C 100.636719 154.445312 102.933594 167.011719 102.933594 167.011719 Z M 102.9375 167.011719 " fill-opacity="1" fill-rule="nonzero"/><path fill="#efb098" d="M 110.546875 157.683594 C 110.546875 157.683594 111.851562 166.894531 110.824219 172.210938 C 109.246094 180.441406 105.523438 192.183594 105.523438 192.183594 L 122.386719 192.855469 C 122.386719 192.855469 134.9375 192.40625 134.882812 192.21875 C 134.832031 192.027344 136.175781 174.859375 136.175781 174.859375 L 110.539062 157.683594 Z M 110.546875 157.683594 " fill-opacity="1" fill-rule="nonzero"/><path fill="#efb098" d="M 139.84375 116.023438 C 139.84375 116.023438 151.65625 124.09375 151.988281 142.640625 C 152.328125 161.1875 144.550781 176.816406 136.105469 177.023438 C 127.65625 177.238281 114.042969 165.765625 109.515625 157.585938 C 104.988281 149.40625 101.175781 133.117188 107.726562 121.925781 C 114.277344 110.738281 129.710938 111.351562 139.84375 116.023438 Z M 139.84375 116.023438 " fill-opacity="1" fill-rule="nonzero"/><path fill="#202020" d="M 97.402344 157.316406 C 96.820312 166.632812 96.140625 170.402344 96.808594 171.132812 C 97.210938 171.578125 100.589844 171.734375 103.558594 171.765625 C 103.488281 169.582031 104.023438 165.140625 104.023438 165.140625 C 104.066406 168.386719 105.089844 170.828125 105.582031 171.792969 C 106.625 171.785156 107.460938 171.78125 107.878906 171.78125 C 107.878906 171.78125 105.808594 165.40625 107.40625 154.011719 C 108.136719 148.765625 113.109375 141.320312 123.117188 139.816406 C 133.117188 138.316406 140.226562 129.167969 141.207031 125.128906 C 141.207031 125.128906 148.324219 130.285156 150.789062 140.753906 C 155.164062 159.339844 148.414062 177.480469 148.414062 177.480469 C 148.414062 177.480469 148.898438 177.5 149.582031 177.390625 L 150.769531 177.082031 C 151.566406 176.804688 152.414062 176.300781 153.085938 175.453125 C 154.828125 173.261719 160.242188 158.085938 158.160156 142.328125 C 156.074219 126.578125 145.230469 103.761719 123.847656 110.957031 C 123.847656 110.957031 109.136719 106.746094 101.484375 123.015625 C 93.84375 139.292969 97.980469 147.996094 97.402344 157.3125 Z M 97.402344 157.316406 " fill-opacity="1" fill-rule="nonzero"/><path fill="#202020" d="M 142.222656 142.566406 C 142.222656 142.566406 145.980469 138.875 149.097656 143.402344 Z M 142.222656 142.566406 " fill-opacity="1" fill-rule="nonzero"/><path fill="#202020" d="M 145.644531 149.414062 C 145.660156 149.703125 145.632812 149.984375 145.566406 150.253906 C 145.5 150.527344 145.394531 150.769531 145.257812 150.980469 C 145.117188 151.195312 144.949219 151.363281 144.757812 151.484375 C 144.566406 151.605469 144.363281 151.671875 144.148438 151.683594 C 143.933594 151.695312 143.726562 151.652344 143.523438 151.550781 C 143.316406 151.453125 143.132812 151.304688 142.972656 151.109375 C 142.808594 150.914062 142.679688 150.683594 142.582031 150.417969 C 142.484375 150.15625 142.429688 149.882812 142.414062 149.589844 C 142.398438 149.300781 142.421875 149.023438 142.488281 148.75 C 142.558594 148.476562 142.660156 148.234375 142.800781 148.023438 C 142.941406 147.808594 143.105469 147.640625 143.300781 147.519531 C 143.492188 147.398438 143.695312 147.332031 143.90625 147.320312 C 144.121094 147.308594 144.332031 147.351562 144.535156 147.453125 C 144.738281 147.550781 144.921875 147.699219 145.085938 147.894531 C 145.25 148.09375 145.378906 148.320312 145.476562 148.585938 C 145.570312 148.847656 145.628906 149.125 145.644531 149.414062 Z M 145.644531 149.414062 " fill-opacity="1" fill-rule="nonzero"/><path fill="#202020" d="M 129.414062 150.164062 C 129.429688 150.453125 129.40625 150.734375 129.335938 151.003906 C 129.269531 151.277344 129.167969 151.519531 129.027344 151.730469 C 128.886719 151.945312 128.71875 152.113281 128.527344 152.234375 C 128.335938 152.355469 128.132812 152.421875 127.917969 152.433594 C 127.707031 152.445312 127.496094 152.402344 127.292969 152.300781 C 127.089844 152.203125 126.90625 152.054688 126.742188 151.859375 C 126.578125 151.664062 126.449219 151.433594 126.351562 151.167969 C 126.257812 150.90625 126.199219 150.632812 126.183594 150.339844 C 126.167969 150.050781 126.191406 149.773438 126.261719 149.5 C 126.328125 149.226562 126.429688 148.984375 126.570312 148.773438 C 126.710938 148.558594 126.878906 148.390625 127.070312 148.269531 C 127.261719 148.148438 127.464844 148.082031 127.679688 148.070312 C 127.894531 148.058594 128.101562 148.101562 128.304688 148.203125 C 128.511719 148.300781 128.691406 148.449219 128.855469 148.644531 C 129.019531 148.84375 129.148438 149.070312 129.246094 149.335938 C 129.34375 149.597656 129.398438 149.875 129.414062 150.164062 Z M 129.414062 150.164062 " fill-opacity="1" fill-rule="nonzero"/><path fill="#202020" d="M 135.980469 158.8125 C 135.835938 158.8125 135.710938 158.707031 135.6875 158.5625 C 135.660156 158.398438 135.773438 158.25 135.933594 158.222656 L 137.355469 157.996094 L 136.59375 154.015625 C 136.5625 153.851562 136.664062 153.703125 136.828125 153.671875 C 136.984375 153.644531 137.140625 153.742188 137.175781 153.90625 L 137.996094 158.179688 C 138.007812 158.257812 137.996094 158.339844 137.949219 158.40625 C 137.90625 158.472656 137.832031 158.519531 137.753906 158.53125 L 136.03125 158.804688 C 136.03125 158.804688 136 158.804688 135.988281 158.804688 Z M 135.980469 158.8125 " fill-opacity="1" fill-rule="nonzero"/><path fill="#202020" d="M 130.023438 143.003906 C 130.023438 143.003906 125.882812 139.742188 123.277344 144.589844 Z M 130.023438 143.003906 " fill-opacity="1" fill-rule="nonzero"/><path fill="#202020" d="M 135.871094 177.324219 C 129.621094 177.324219 121.007812 171.355469 115.183594 165.367188 C 115.074219 165.25 115.074219 165.0625 115.183594 164.949219 C 115.300781 164.839844 115.488281 164.839844 115.601562 164.949219 C 121.414062 170.925781 130.019531 176.867188 136.089844 176.722656 C 136.265625 176.703125 136.390625 176.847656 136.390625 177.011719 C 136.390625 177.175781 136.265625 177.3125 136.105469 177.3125 C 136.027344 177.3125 135.941406 177.3125 135.863281 177.3125 Z M 135.871094 177.324219 " fill-opacity="1" fill-rule="nonzero"/><path fill="#efb098" d="M 110.191406 158.472656 C 105.152344 157.617188 100.347656 146.5 103.648438 144.265625 C 106.945312 142.027344 108.992188 145.992188 108.992188 145.992188 L 110.191406 158.464844 Z M 110.191406 158.472656 " fill-opacity="1" fill-rule="nonzero"/><path fill="#202020" d="M 108.785156 152.863281 C 108.640625 152.863281 108.511719 152.757812 108.492188 152.609375 C 108.171875 150.355469 107.25 146.761719 106.140625 146.683594 C 105.089844 146.617188 104.910156 148.613281 104.902344 148.632812 C 104.890625 148.796875 104.738281 148.914062 104.582031 148.902344 C 104.417969 148.890625 104.300781 148.746094 104.316406 148.582031 C 104.320312 148.476562 104.550781 145.992188 106.179688 146.097656 C 108.085938 146.226562 108.925781 151.472656 109.070312 152.523438 C 109.097656 152.6875 108.980469 152.835938 108.824219 152.855469 C 108.808594 152.855469 108.796875 152.855469 108.785156 152.855469 Z M 108.785156 152.863281 " fill-opacity="1" fill-rule="nonzero"/><path fill="#202020" d="M 107.734375 148.757812 C 107.640625 148.757812 107.558594 148.71875 107.5 148.640625 C 107.363281 148.453125 106.898438 147.96875 106.457031 147.96875 C 106.207031 147.96875 105.984375 148.121094 105.769531 148.417969 C 105.671875 148.550781 105.488281 148.582031 105.359375 148.484375 C 105.230469 148.386719 105.195312 148.203125 105.292969 148.074219 C 105.625 147.617188 106.019531 147.382812 106.460938 147.382812 C 107.296875 147.382812 107.957031 148.257812 107.980469 148.296875 C 108.078125 148.425781 108.054688 148.609375 107.921875 148.707031 C 107.871094 148.746094 107.804688 148.765625 107.746094 148.765625 Z M 107.734375 148.757812 " fill-opacity="1" fill-rule="nonzero"/><path fill="#202020" d="M 140.789062 124.003906 C 140.691406 124.003906 140.59375 123.949219 140.535156 123.859375 C 135.171875 114.804688 124.308594 111.925781 124.207031 111.894531 C 124.050781 111.855469 123.949219 111.691406 123.988281 111.535156 C 124.03125 111.378906 124.191406 111.28125 124.347656 111.320312 C 124.460938 111.347656 135.550781 114.28125 141.042969 123.550781 C 141.128906 123.695312 141.082031 123.871094 140.9375 123.957031 C 140.890625 123.984375 140.839844 123.996094 140.789062 123.996094 Z M 140.789062 124.003906 " fill-opacity="1" fill-rule="nonzero"/><path fill="#202020" d="M 110.617188 141.96875 C 110.566406 141.96875 110.511719 141.953125 110.46875 141.929688 C 110.332031 141.84375 110.285156 141.660156 110.363281 141.523438 C 112.234375 138.40625 114.609375 135.503906 122.945312 134.199219 C 131.132812 132.917969 133.894531 126.179688 133.925781 126.109375 C 133.984375 125.960938 134.152344 125.882812 134.308594 125.945312 C 134.460938 126.003906 134.539062 126.175781 134.472656 126.332031 C 134.445312 126.402344 131.570312 133.453125 123.039062 134.785156 C 114.941406 136.050781 112.738281 138.726562 110.871094 141.832031 C 110.8125 141.921875 110.714844 141.972656 110.617188 141.972656 Z M 110.617188 141.96875 " fill-opacity="1" fill-rule="nonzero"/><path fill="#202020" d="M 113.355469 135.425781 C 113.285156 135.425781 113.214844 135.398438 113.15625 135.347656 C 113.039062 135.234375 113.03125 135.046875 113.140625 134.929688 C 113.234375 134.832031 115.386719 132.59375 120.089844 132.292969 C 124.558594 132.007812 127.160156 129.769531 127.1875 129.75 C 127.3125 129.644531 127.492188 129.652344 127.605469 129.777344 C 127.714844 129.898438 127.703125 130.082031 127.578125 130.191406 C 127.46875 130.289062 124.8125 132.585938 120.128906 132.878906 C 115.679688 133.167969 113.597656 135.308594 113.578125 135.328125 C 113.519531 135.386719 113.441406 135.417969 113.363281 135.417969 Z M 113.355469 135.425781 " fill-opacity="1" fill-rule="nonzero"/><path fill="#2a70c0" d="M 165.898438 185.65625 C 165.898438 185.65625 164.304688 202.394531 161.957031 221.136719 C 159.613281 239.882812 150.042969 245.933594 146.527344 258.820312 C 146.164062 260.179688 145.84375 261.589844 145.570312 263.03125 L 68.078125 271.726562 C 73.445312 258.730469 81.566406 243.957031 82.246094 232.324219 C 83.265625 214.75 74.332031 190.445312 74.332031 190.445312 L 110.792969 177.265625 C 136.566406 205.53125 136.085938 177.734375 136.085938 177.734375 C 136.085938 177.734375 163.105469 184.78125 165.890625 185.660156 Z M 165.898438 185.65625 " fill-opacity="1" fill-rule="nonzero"/><path fill="#202020" d="M 40.671875 275.710938 C 40.476562 275.710938 40.3125 275.566406 40.289062 275.367188 C 40.261719 275.148438 40.417969 274.960938 40.628906 274.933594 L 239.867188 252.585938 C 240.074219 252.558594 240.269531 252.714844 240.296875 252.925781 C 240.324219 253.132812 240.167969 253.328125 239.957031 253.355469 L 40.71875 275.703125 C 40.71875 275.703125 40.691406 275.703125 40.671875 275.703125 Z M 40.671875 275.710938 " fill-opacity="1" fill-rule="nonzero"/><path fill="#efb098" d="M 74.347656 190.445312 C 74.347656 190.445312 63.804688 193.222656 68.488281 225.292969 C 73.171875 257.359375 78.46875 294.023438 95.574219 288.398438 C 104.914062 285.332031 117.152344 229.625 118.328125 219.8125 L 106.082031 214.820312 L 92.214844 244.066406 C 92.214844 244.066406 88.398438 206.691406 83.859375 198.492188 C 79.316406 190.292969 74.339844 190.4375 74.339844 190.4375 Z M 74.347656 190.445312 " fill-opacity="1" fill-rule="nonzero"/><path fill="#2a70c0" d="M 74.347656 190.445312 C 74.347656 190.445312 61.769531 193.746094 66.753906 221.855469 C 71.742188 249.964844 71.289062 254.496094 71.742188 262.207031 C 72.023438 266.949219 74.386719 273.089844 76.957031 276.1875 C 79.089844 278.757812 80.042969 282.644531 83.53125 283.519531 C 83.53125 283.519531 83.988281 253.597656 92.828125 243.164062 C 92.828125 243.164062 93.226562 229.277344 91.691406 224.292969 C 90.160156 219.304688 87.101562 201.117188 83.929688 196.355469 C 80.753906 191.589844 76.726562 190.148438 74.347656 190.449219 Z M 74.347656 190.445312 " fill-opacity="1" fill-rule="nonzero"/><path fill="#202020" d="M 92.820312 243.460938 C 92.664062 243.460938 92.535156 243.34375 92.527344 243.183594 C 92.515625 242.976562 91.117188 222.179688 86.644531 206.746094 C 86.597656 206.589844 86.6875 206.425781 86.847656 206.378906 C 87.003906 206.339844 87.164062 206.425781 87.210938 206.582031 C 91.699219 222.074219 93.101562 242.9375 93.113281 243.144531 C 93.128906 243.308594 93.003906 243.445312 92.839844 243.460938 C 92.839844 243.460938 92.828125 243.460938 92.820312 243.460938 Z M 92.820312 243.460938 " fill-opacity="1" fill-rule="nonzero"/><path fill="#202020" d="M 82.089844 257.511719 C 82.089844 257.511719 82.042969 257.511719 82.023438 257.503906 C 81.867188 257.464844 81.765625 257.308594 81.804688 257.152344 C 85.300781 242.109375 92.546875 242.828125 92.859375 242.871094 C 93.023438 242.890625 93.132812 243.042969 93.113281 243.199219 C 93.09375 243.363281 92.953125 243.472656 92.789062 243.460938 C 92.722656 243.445312 85.742188 242.808594 82.382812 257.289062 C 82.351562 257.425781 82.226562 257.515625 82.097656 257.515625 Z M 82.089844 257.511719 " fill-opacity="1" fill-rule="nonzero"/><path fill="#efb098" d="M 117.003906 219.539062 C 117.003906 219.539062 118.632812 210.488281 117.101562 204.324219 C 115.570312 198.160156 117.96875 188.53125 118.183594 185.902344 C 118.398438 183.28125 114.203125 184.148438 112.898438 187.75 C 111.59375 191.351562 105.273438 202.421875 105.273438 202.421875 L 111.734375 218.675781 Z M 117.003906 219.539062 " fill-opacity="1" fill-rule="nonzero"/><path fill="#efb098" d="M 118.21875 220.378906 C 118.21875 220.378906 119.1875 217.046875 117.804688 213.992188 C 116.421875 210.941406 113.285156 208.058594 114.191406 205.722656 C 115.09375 203.386719 117.394531 201.253906 117.949219 201.097656 C 120.460938 200.390625 123.535156 202.648438 124.304688 199.753906 C 124.304688 199.753906 122.191406 197.363281 119.128906 197.285156 C 116.070312 197.203125 110.335938 200.542969 110.335938 200.542969 C 110.335938 200.542969 115.589844 195.804688 115.945312 195.589844 C 116.304688 195.375 119.546875 195.070312 120.878906 195.460938 C 122.203125 195.851562 125.433594 197.058594 126.535156 194.0625 C 126.535156 194.0625 123.605469 192.230469 120.042969 191.304688 C 116.480469 190.378906 114.402344 190.390625 113.050781 190.71875 C 111.699219 191.050781 107.878906 194.878906 107.878906 194.878906 C 107.878906 194.878906 111.144531 189.699219 111.453125 189.125 C 111.757812 188.558594 116.261719 186.203125 117.035156 186.074219 C 117.8125 185.941406 123.460938 185.832031 122.320312 182.414062 L 115.964844 181.941406 C 115.964844 181.941406 119.691406 179.894531 118.054688 177.929688 C 118.054688 177.929688 106.335938 182.835938 104.816406 184.847656 C 103.292969 186.855469 98.546875 197.214844 98.171875 199.667969 C 97.785156 202.121094 101.222656 208.054688 102.691406 211.703125 C 104.152344 215.34375 105.210938 219.09375 105.488281 221.382812 L 118.238281 220.378906 Z M 118.21875 220.378906 " fill-opacity="1" fill-rule="nonzero"/><path fill="#202020" d="M 99.753906 198.390625 C 99.703125 198.390625 99.65625 198.375 99.613281 198.351562 C 99.46875 198.273438 99.417969 198.089844 99.5 197.945312 C 99.761719 197.476562 105.960938 186.386719 107.109375 185.121094 C 108.273438 183.839844 115.097656 181.871094 115.875 181.648438 C 116.03125 181.605469 116.195312 181.695312 116.242188 181.851562 C 116.285156 182.007812 116.195312 182.171875 116.039062 182.21875 C 113.976562 182.804688 108.4375 184.53125 107.542969 185.511719 C 106.441406 186.730469 100.082031 198.113281 100.015625 198.226562 C 99.964844 198.324219 99.859375 198.375 99.753906 198.375 Z M 99.753906 198.390625 " fill-opacity="1" fill-rule="nonzero"/><path fill="#202020" d="M 102.605469 201.167969 C 102.535156 201.167969 102.46875 201.140625 102.410156 201.097656 C 102.285156 200.984375 102.273438 200.800781 102.382812 200.679688 L 107.640625 194.683594 C 107.753906 194.558594 107.9375 194.546875 108.058594 194.65625 C 108.183594 194.769531 108.195312 194.949219 108.085938 195.074219 L 102.828125 201.070312 C 102.769531 201.136719 102.691406 201.167969 102.605469 201.167969 Z M 102.605469 201.167969 " fill-opacity="1" fill-rule="nonzero"/><path fill="#202020" d="M 106.488281 204 C 106.402344 204 106.316406 203.960938 106.257812 203.886719 C 106.15625 203.765625 106.175781 203.574219 106.296875 203.46875 L 110.132812 200.308594 C 110.257812 200.203125 110.449219 200.222656 110.550781 200.347656 C 110.65625 200.46875 110.636719 200.660156 110.511719 200.761719 L 106.675781 203.925781 C 106.625 203.972656 106.554688 203.992188 106.488281 203.992188 Z M 106.488281 204 " fill-opacity="1" fill-rule="nonzero"/><path fill="#efb098" d="M 165.675781 189.960938 C 165.675781 189.960938 173.039062 193.660156 177.429688 210.789062 C 181.820312 227.921875 185.628906 255.304688 185.628906 255.304688 L 213.746094 271.269531 L 207.300781 285.914062 C 207.300781 285.914062 172.597656 274.347656 166.59375 264.972656 C 160.59375 255.597656 157.058594 225.789062 157.058594 225.789062 L 163.371094 192.933594 L 165.675781 189.96875 Z M 165.675781 189.960938 " fill-opacity="1" fill-rule="nonzero"/><path fill="#2a70c0" d="M 165.898438 185.65625 C 165.898438 185.65625 176.777344 188.605469 179.578125 210.972656 C 181.996094 230.328125 186.53125 254.496094 186.53125 254.496094 C 186.53125 254.496094 170.058594 256.765625 166.882812 267.042969 C 166.882812 267.042969 157.664062 244.824219 157.058594 231.976562 C 156.449219 219.132812 156.757812 203.71875 156.757812 203.71875 L 165.902344 185.65625 Z M 165.898438 185.65625 " fill-opacity="1" fill-rule="nonzero"/><path fill="#202020" d="M 158.152344 235.636719 C 158.113281 235.636719 158.074219 235.632812 158.035156 235.613281 C 157.886719 235.546875 157.820312 235.371094 157.878906 235.21875 C 159.785156 230.796875 161.023438 226.179688 161.65625 221.101562 C 164 202.363281 164.316406 199.894531 164.316406 199.894531 C 164.335938 199.734375 164.488281 199.621094 164.652344 199.640625 C 164.8125 199.660156 164.925781 199.8125 164.90625 199.972656 C 164.90625 199.972656 164.585938 202.441406 162.242188 221.175781 C 161.605469 226.308594 160.351562 230.980469 158.421875 235.453125 C 158.375 235.566406 158.265625 235.632812 158.148438 235.632812 Z M 158.152344 235.636719 " fill-opacity="1" fill-rule="nonzero"/><g clip-path="url(#51e129d14d)"><path fill="#202020" d="M 115.390625 281.078125 L 114.980469 282.234375 C 114.597656 283.316406 115.019531 284.523438 115.992188 285.132812 L 143.769531 295.242188 L 148.082031 295.242188 C 148.082031 295.242188 150.691406 292.546875 150.691406 292.546875 L 119.828125 281.785156 L 115.390625 281.085938 Z M 115.390625 281.078125 " fill-opacity="1" fill-rule="nonzero"/></g><path fill="#202020" d="M 146.476562 291.902344 L 115.390625 281.078125 L 164.316406 277.054688 Z M 146.476562 291.902344 " fill-opacity="1" fill-rule="nonzero"/><path fill="#ffffff" d="M 115.296875 281.347656 L 115.484375 280.785156 L 146.871094 291.191406 L 146.683594 291.753906 Z M 115.296875 281.347656 " fill-opacity="1" fill-rule="nonzero"/><path fill="#202020" d="M 233.296875 286.578125 L 146.175781 293.585938 L 163.320312 241.039062 C 163.652344 240.007812 164.613281 239.316406 165.695312 239.316406 L 247.558594 232.3125 C 249.257812 232.3125 250.460938 233.96875 249.933594 235.585938 Z M 233.296875 286.578125 " fill-opacity="1" fill-rule="nonzero"/><g clip-path="url(#80070c70a8)"><path fill="#202020" d="M 233.296875 286.578125 L 148.082031 295.25 L 165.140625 242.964844 C 165.523438 241.78125 166.628906 240.980469 167.875 240.980469 L 248.941406 233.972656 C 250.898438 233.972656 252.28125 235.886719 251.671875 237.746094 Z M 233.296875 286.578125 " fill-opacity="1" fill-rule="nonzero"/></g><path fill="#ffffff" d="M 205.1875 258.742188 C 205.472656 258.8125 205.746094 258.914062 206.007812 259.050781 C 206.269531 259.1875 206.515625 259.351562 206.746094 259.550781 C 206.976562 259.746094 207.1875 259.972656 207.375 260.222656 C 207.5625 260.472656 207.730469 260.742188 207.871094 261.039062 C 208.011719 261.332031 208.125 261.640625 208.214844 261.96875 C 208.300781 262.292969 208.359375 262.628906 208.390625 262.976562 C 208.417969 263.324219 208.421875 263.671875 208.394531 264.023438 C 208.363281 264.378906 208.308594 264.726562 208.222656 265.070312 C 208.136719 265.417969 208.027344 265.753906 207.886719 266.078125 C 207.75 266.402344 207.585938 266.710938 207.398438 267.003906 C 207.210938 267.296875 207 267.566406 206.773438 267.816406 C 206.542969 268.066406 206.300781 268.285156 206.039062 268.480469 C 205.777344 268.675781 205.503906 268.839844 205.21875 268.976562 C 204.9375 269.109375 204.648438 269.210938 204.351562 269.277344 C 204.054688 269.34375 203.761719 269.378906 203.464844 269.375 C 203.167969 269.375 202.878906 269.339844 202.59375 269.269531 C 202.308594 269.199219 202.035156 269.097656 201.773438 268.960938 C 201.511719 268.824219 201.265625 268.65625 201.035156 268.460938 C 200.804688 268.261719 200.59375 268.039062 200.40625 267.789062 C 200.214844 267.539062 200.050781 267.265625 199.910156 266.972656 C 199.769531 266.679688 199.65625 266.371094 199.566406 266.042969 C 199.480469 265.714844 199.421875 265.378906 199.390625 265.035156 C 199.363281 264.6875 199.359375 264.339844 199.386719 263.984375 C 199.417969 263.632812 199.472656 263.285156 199.558594 262.9375 C 199.644531 262.59375 199.753906 262.257812 199.894531 261.933594 C 200.03125 261.605469 200.195312 261.296875 200.382812 261.003906 C 200.570312 260.714844 200.777344 260.441406 201.007812 260.195312 C 201.238281 259.945312 201.480469 259.722656 201.742188 259.527344 C 202.003906 259.335938 202.277344 259.167969 202.5625 259.035156 C 202.84375 258.902344 203.132812 258.800781 203.429688 258.734375 C 203.726562 258.667969 204.019531 258.632812 204.316406 258.632812 C 204.613281 258.636719 204.902344 258.671875 205.1875 258.742188 Z M 205.1875 258.742188 " fill-opacity="1" fill-rule="nonzero"/><g clip-path="url(#18a17c82bb)"><path fill="#ffffff" d="M 148.363281 295.339844 L 147.800781 295.15625 L 164.859375 242.871094 C 165.285156 241.5625 166.496094 240.6875 167.875 240.6875 L 248.914062 233.679688 L 248.964844 234.269531 L 167.898438 241.273438 C 166.75 241.273438 165.765625 241.992188 165.421875 243.054688 Z M 148.363281 295.339844 " fill-opacity="1" fill-rule="nonzero"/></g><path fill="#202020" d="M 77.40625 276.929688 C 77.25 276.929688 77.121094 276.808594 77.113281 276.652344 C 77.113281 276.597656 76.832031 271.53125 79.179688 266.160156 C 79.246094 266.011719 79.414062 265.9375 79.570312 266.011719 C 79.722656 266.074219 79.789062 266.253906 79.722656 266.402344 C 77.4375 271.632812 77.699219 276.574219 77.707031 276.617188 C 77.714844 276.78125 77.59375 276.917969 77.433594 276.929688 C 77.433594 276.929688 77.417969 276.929688 77.414062 276.929688 Z M 77.40625 276.929688 " fill-opacity="1" fill-rule="nonzero"/><path fill="#ffffff" d="M 131.539062 164.296875 C 131.539062 164.296875 135.199219 169.253906 139.019531 164.453125 Z M 131.539062 164.296875 " fill-opacity="1" fill-rule="nonzero"/><path fill="#2a70c0" d="M 187.808594 109.613281 L 302.523438 109.613281 L 302.523438 110.636719 L 187.808594 110.636719 Z M 187.808594 109.613281 " fill-opacity="1" fill-rule="nonzero"/><path fill="#2a70c0" d="M 281.726562 118.960938 L 302.523438 118.960938 L 302.523438 119.984375 L 281.726562 119.984375 Z M 281.726562 118.960938 " fill-opacity="1" fill-rule="nonzero"/><path fill="#2a70c0" d="M 187.808594 118.960938 L 273.988281 118.960938 L 273.988281 119.984375 L 187.808594 119.984375 Z M 187.808594 118.960938 " fill-opacity="1" fill-rule="nonzero"/><path fill="#2a70c0" d="M 232.277344 128.300781 L 282.746094 128.300781 L 282.746094 129.324219 L 232.277344 129.324219 Z M 232.277344 128.300781 " fill-opacity="1" fill-rule="nonzero"/><path fill="#2a70c0" d="M 187.808594 128.300781 L 224.535156 128.300781 L 224.535156 129.324219 L 187.808594 129.324219 Z M 187.808594 128.300781 " fill-opacity="1" fill-rule="nonzero"/><g clip-path="url(#1297de2728)"><path fill="#ffffff" d="M 191.90625 142.964844 L 327.027344 142.964844 C 327.296875 142.964844 327.566406 142.992188 327.832031 143.046875 C 328.097656 143.097656 328.355469 143.175781 328.605469 143.28125 C 328.855469 143.382812 329.09375 143.511719 329.320312 143.660156 C 329.546875 143.8125 329.753906 143.984375 329.945312 144.175781 C 330.136719 144.367188 330.308594 144.574219 330.460938 144.800781 C 330.609375 145.027344 330.738281 145.265625 330.839844 145.515625 C 330.945312 145.765625 331.023438 146.023438 331.074219 146.289062 C 331.128906 146.554688 331.15625 146.824219 331.15625 147.09375 L 331.15625 189.28125 C 331.15625 189.554688 331.128906 189.820312 331.074219 190.085938 C 331.023438 190.355469 330.945312 190.613281 330.839844 190.863281 C 330.738281 191.113281 330.609375 191.351562 330.460938 191.578125 C 330.308594 191.800781 330.136719 192.011719 329.945312 192.203125 C 329.753906 192.394531 329.546875 192.566406 329.320312 192.714844 C 329.09375 192.867188 328.855469 192.992188 328.605469 193.097656 C 328.355469 193.199219 328.097656 193.28125 327.832031 193.332031 C 327.566406 193.386719 327.296875 193.410156 327.027344 193.410156 L 191.90625 193.410156 C 191.632812 193.410156 191.367188 193.386719 191.101562 193.332031 C 190.835938 193.277344 190.574219 193.199219 190.324219 193.097656 C 190.074219 192.992188 189.835938 192.867188 189.613281 192.714844 C 189.386719 192.566406 189.175781 192.394531 188.984375 192.203125 C 188.792969 192.011719 188.621094 191.800781 188.472656 191.578125 C 188.320312 191.351562 188.195312 191.113281 188.089844 190.863281 C 187.988281 190.613281 187.910156 190.355469 187.855469 190.085938 C 187.804688 189.820312 187.777344 189.554688 187.777344 189.28125 L 187.777344 147.09375 C 187.777344 146.824219 187.804688 146.554688 187.855469 146.289062 C 187.910156 146.023438 187.988281 145.765625 188.089844 145.515625 C 188.195312 145.265625 188.320312 145.027344 188.472656 144.800781 C 188.621094 144.574219 188.792969 144.367188 188.984375 144.175781 C 189.175781 143.984375 189.386719 143.8125 189.613281 143.660156 C 189.835938 143.511719 190.074219 143.382812 190.324219 143.28125 C 190.574219 143.175781 190.835938 143.097656 191.101562 143.046875 C 191.367188 142.992188 191.632812 142.964844 191.90625 142.964844 Z M 191.90625 142.964844 " fill-opacity="1" fill-rule="nonzero"/><path fill="#2a70c0" d="M 327.027344 193.925781 L 191.898438 193.925781 C 189.34375 193.925781 187.261719 191.847656 187.261719 189.289062 L 187.261719 147.101562 C 187.261719 144.542969 189.34375 142.464844 191.898438 142.464844 L 327.027344 142.464844 C 329.582031 142.464844 331.664062 144.542969 331.664062 147.101562 L 331.664062 189.289062 C 331.664062 191.847656 329.582031 193.925781 327.027344 193.925781 Z M 191.90625 143.480469 C 189.910156 143.480469 188.292969 145.105469 188.292969 147.09375 L 188.292969 189.28125 C 188.292969 191.277344 189.914062 192.894531 191.90625 192.894531 L 327.03125 192.894531 C 329.027344 192.894531 330.644531 191.273438 330.644531 189.28125 L 330.644531 147.09375 C 330.644531 145.097656 329.023438 143.480469 327.03125 143.480469 Z M 191.90625 143.480469 " fill-opacity="1" fill-rule="nonzero"/></g><path fill="#e7495a" d="M 271.152344 265.449219 C 271.152344 265.449219 268.386719 267.300781 269.402344 273.34375 C 270.421875 279.382812 273.480469 284.183594 273.480469 284.183594 L 284.976562 284.183594 C 284.976562 284.183594 288.035156 279.382812 289.050781 273.34375 C 290.070312 267.300781 287.304688 265.449219 287.304688 265.449219 Z M 271.152344 265.449219 " fill-opacity="1" fill-rule="nonzero"/><path fill="#e7495a" d="M 287.304688 265.449219 C 287.304688 265.519531 287.253906 265.589844 287.148438 265.65625 C 287.046875 265.722656 286.890625 265.789062 286.691406 265.855469 C 286.488281 265.917969 286.238281 265.980469 285.941406 266.035156 C 285.648438 266.09375 285.3125 266.148438 284.9375 266.195312 C 284.5625 266.246094 284.15625 266.289062 283.714844 266.328125 C 283.273438 266.367188 282.808594 266.398438 282.320312 266.425781 C 281.828125 266.453125 281.324219 266.472656 280.804688 266.488281 C 280.285156 266.5 279.757812 266.507812 279.226562 266.507812 C 278.699219 266.507812 278.171875 266.5 277.652344 266.488281 C 277.132812 266.472656 276.628906 266.453125 276.136719 266.425781 C 275.648438 266.398438 275.183594 266.367188 274.742188 266.328125 C 274.300781 266.289062 273.894531 266.246094 273.519531 266.195312 C 273.144531 266.148438 272.808594 266.09375 272.511719 266.035156 C 272.21875 265.980469 271.96875 265.917969 271.765625 265.855469 C 271.5625 265.789062 271.410156 265.722656 271.308594 265.65625 C 271.203125 265.589844 271.152344 265.519531 271.152344 265.449219 C 271.152344 265.378906 271.203125 265.3125 271.308594 265.242188 C 271.410156 265.175781 271.5625 265.109375 271.765625 265.046875 C 271.96875 264.980469 272.21875 264.921875 272.511719 264.863281 C 272.808594 264.804688 273.144531 264.75 273.519531 264.703125 C 273.894531 264.652344 274.300781 264.609375 274.742188 264.570312 C 275.183594 264.53125 275.648438 264.5 276.136719 264.472656 C 276.628906 264.445312 277.132812 264.425781 277.652344 264.414062 C 278.171875 264.398438 278.699219 264.394531 279.226562 264.394531 C 279.757812 264.394531 280.285156 264.398438 280.804688 264.414062 C 281.324219 264.425781 281.828125 264.445312 282.320312 264.472656 C 282.808594 264.5 283.273438 264.53125 283.714844 264.570312 C 284.15625 264.609375 284.5625 264.652344 284.9375 264.703125 C 285.3125 264.75 285.648438 264.804688 285.941406 264.863281 C 286.238281 264.921875 286.488281 264.980469 286.691406 265.046875 C 286.894531 265.109375 287.046875 265.175781 287.148438 265.242188 C 287.253906 265.3125 287.304688 265.378906 287.304688 265.449219 Z M 287.304688 265.449219 " fill-opacity="1" fill-rule="nonzero"/><path fill="#202020" d="M 286.789062 265.449219 C 286.789062 265.5 286.742188 265.546875 286.644531 265.597656 C 286.546875 265.644531 286.402344 265.695312 286.214844 265.738281 C 286.023438 265.785156 285.789062 265.828125 285.515625 265.871094 C 285.238281 265.910156 284.925781 265.949219 284.574219 265.984375 C 284.222656 266.019531 283.839844 266.050781 283.429688 266.078125 C 283.015625 266.105469 282.582031 266.128906 282.121094 266.148438 C 281.664062 266.167969 281.191406 266.183594 280.703125 266.191406 C 280.214844 266.203125 279.726562 266.207031 279.226562 266.207031 C 278.730469 266.207031 278.242188 266.203125 277.753906 266.191406 C 277.265625 266.183594 276.792969 266.167969 276.335938 266.148438 C 275.875 266.128906 275.441406 266.105469 275.027344 266.078125 C 274.613281 266.050781 274.234375 266.019531 273.882812 265.984375 C 273.53125 265.949219 273.21875 265.910156 272.941406 265.871094 C 272.667969 265.828125 272.433594 265.785156 272.242188 265.738281 C 272.054688 265.695312 271.910156 265.644531 271.8125 265.597656 C 271.714844 265.546875 271.667969 265.5 271.667969 265.449219 C 271.667969 265.398438 271.714844 265.351562 271.8125 265.300781 C 271.910156 265.253906 272.054688 265.207031 272.242188 265.160156 C 272.433594 265.113281 272.667969 265.070312 272.941406 265.03125 C 273.21875 264.988281 273.53125 264.949219 273.882812 264.914062 C 274.234375 264.878906 274.613281 264.847656 275.027344 264.820312 C 275.441406 264.792969 275.875 264.769531 276.335938 264.75 C 276.792969 264.730469 277.265625 264.71875 277.753906 264.707031 C 278.242188 264.699219 278.730469 264.691406 279.226562 264.691406 C 279.726562 264.691406 280.214844 264.699219 280.703125 264.707031 C 281.191406 264.71875 281.664062 264.730469 282.121094 264.75 C 282.582031 264.769531 283.015625 264.792969 283.429688 264.820312 C 283.839844 264.847656 284.222656 264.878906 284.574219 264.914062 C 284.925781 264.949219 285.238281 264.988281 285.515625 265.03125 C 285.789062 265.070312 286.023438 265.113281 286.214844 265.160156 C 286.402344 265.207031 286.546875 265.253906 286.644531 265.300781 C 286.742188 265.351562 286.789062 265.398438 286.789062 265.449219 Z M 286.789062 265.449219 " fill-opacity="1" fill-rule="nonzero"/><path fill="#2a70c0" d="M 276.085938 246.355469 C 276.449219 246.492188 277.726562 243.726562 277.84375 243.453125 C 278.933594 240.933594 279.222656 238.078125 278.757812 235.363281 C 278.316406 232.746094 277.324219 230.09375 275.964844 227.992188 C 274.832031 226.238281 273.285156 224.445312 271.40625 223.921875 C 270.351562 223.628906 269.261719 223.921875 268.503906 224.945312 C 267.839844 225.847656 267.511719 227.105469 267.402344 228.265625 C 267.054688 231.984375 267.929688 235.578125 269.089844 238.925781 C 269.972656 241.464844 271.179688 244.152344 273.382812 245.3125 C 274.246094 245.769531 275.175781 246.03125 276.078125 246.355469 Z M 276.085938 246.355469 " fill-opacity="1" fill-rule="nonzero"/><path fill="#202020" d="M 278.660156 265.535156 L 278.464844 265.535156 C 278.0625 260.246094 276.554688 244.171875 273 233.707031 L 273.1875 233.648438 C 276.757812 244.144531 278.25 260.265625 278.667969 265.535156 Z M 278.660156 265.535156 " fill-opacity="1" fill-rule="nonzero"/><path fill="#2a70c0" d="M 281.640625 247.027344 C 281.394531 247.136719 280.449219 245.324219 280.363281 245.148438 C 279.554688 243.492188 279.300781 241.5625 279.5625 239.6875 C 279.816406 237.882812 280.449219 236.015625 281.335938 234.507812 C 282.085938 233.25 283.117188 231.9375 284.40625 231.476562 C 285.132812 231.214844 285.894531 231.359375 286.4375 232.011719 C 286.917969 232.585938 287.167969 233.425781 287.265625 234.210938 C 287.585938 236.71875 287.050781 239.21875 286.320312 241.566406 C 285.765625 243.347656 284.980469 245.246094 283.480469 246.160156 C 282.894531 246.519531 282.253906 246.746094 281.640625 247.027344 Z M 281.640625 247.027344 " fill-opacity="1" fill-rule="nonzero"/><path fill="#2a70c0" d="M 286.125 254.4375 C 285.855469 254.4375 285.554688 252.335938 285.535156 252.136719 C 285.316406 250.25 285.691406 248.34375 286.527344 246.722656 C 287.335938 245.15625 288.519531 243.695312 289.824219 242.691406 C 290.917969 241.847656 292.289062 241.078125 293.636719 241.214844 C 294.394531 241.292969 295.054688 241.757812 295.347656 242.597656 C 295.609375 243.34375 295.574219 244.230469 295.417969 245.003906 C 294.917969 247.476562 293.625 249.566406 292.203125 251.425781 C 291.121094 252.832031 289.796875 254.253906 288.113281 254.453125 C 287.453125 254.53125 286.789062 254.464844 286.128906 254.453125 Z M 286.125 254.4375 " fill-opacity="1" fill-rule="nonzero"/><path fill="#202020" d="M 283.996094 238.320312 C 280.898438 247.671875 279.664062 260.132812 279.246094 265.535156 L 279.058594 265.535156 C 279.464844 260.144531 280.710938 247.640625 283.8125 238.261719 L 283.992188 238.320312 Z M 283.996094 238.320312 " fill-opacity="1" fill-rule="nonzero"/><path fill="#2a70c0" d="M 274.550781 258.847656 C 274.8125 258.769531 274.695312 256.65625 274.679688 256.449219 C 274.53125 254.550781 273.792969 252.792969 272.660156 251.4375 C 271.5625 250.125 270.132812 249.023438 268.667969 248.390625 C 267.433594 247.863281 265.953125 247.484375 264.667969 247.972656 C 263.949219 248.246094 263.394531 248.875 263.265625 249.773438 C 263.15625 250.570312 263.363281 251.425781 263.664062 252.136719 C 264.636719 254.40625 266.292969 256.09375 268.039062 257.523438 C 269.363281 258.605469 270.9375 259.636719 272.613281 259.375 C 273.273438 259.273438 273.90625 259.039062 274.542969 258.847656 Z M 274.550781 258.847656 " fill-opacity="1" fill-rule="nonzero"/><path fill="#202020" d="M 277.585938 265.535156 L 277.371094 265.535156 C 275.210938 259.34375 272.515625 255.894531 270.546875 254.054688 L 270.683594 253.902344 C 272.660156 255.761719 275.414062 259.265625 277.585938 265.535156 Z M 277.585938 265.535156 " fill-opacity="1" fill-rule="nonzero"/><path fill="#202020" d="M 290.15625 248.613281 C 285.824219 254.015625 282.113281 261.777344 280.441406 265.535156 L 280.226562 265.535156 C 281.890625 261.796875 285.632812 253.9375 290 248.496094 Z M 290.15625 248.613281 " fill-opacity="1" fill-rule="nonzero"/><path fill="#2a70c0" d="M 205.390625 166.664062 C 201.429688 166.664062 198.207031 163.441406 198.207031 159.484375 C 198.207031 155.523438 201.429688 152.300781 205.390625 152.300781 C 209.347656 152.300781 212.570312 155.523438 212.570312 159.484375 C 212.570312 163.441406 209.347656 166.664062 205.390625 166.664062 Z M 205.390625 153.226562 C 201.9375 153.226562 199.132812 156.03125 199.132812 159.484375 C 199.132812 162.933594 201.9375 165.738281 205.390625 165.738281 C 208.839844 165.738281 211.644531 162.933594 211.644531 159.484375 C 211.644531 156.03125 208.839844 153.226562 205.390625 153.226562 Z M 205.390625 153.226562 " fill-opacity="1" fill-rule="nonzero"/><path fill="#e7495a" d="M 245.089844 155.453125 L 257.65625 155.453125 L 257.65625 156.410156 L 245.089844 156.410156 Z M 245.089844 155.453125 " fill-opacity="1" fill-rule="nonzero"/><path fill="#e7495a" d="M 234.019531 155.453125 L 243.167969 155.453125 L 243.167969 156.410156 L 234.019531 156.410156 Z M 234.019531 155.453125 " fill-opacity="1" fill-rule="nonzero"/><path fill="#e7495a" d="M 242.480469 162.550781 L 252.4375 162.550781 L 252.4375 163.507812 L 242.480469 163.507812 Z M 242.480469 162.550781 " fill-opacity="1" fill-rule="nonzero"/><path fill="#e7495a" d="M 234.019531 162.550781 L 240.558594 162.550781 L 240.558594 163.507812 L 234.019531 163.507812 Z M 234.019531 162.550781 " fill-opacity="1" fill-rule="nonzero"/><path fill="#2a70c0" d="M 225.898438 163.3125 L 225.382812 161.957031 L 220.992188 161.957031 L 220.476562 163.339844 C 220.277344 163.878906 220.105469 164.246094 219.964844 164.433594 C 219.820312 164.625 219.585938 164.714844 219.265625 164.714844 C 218.992188 164.714844 218.75 164.617188 218.535156 164.414062 C 218.324219 164.210938 218.214844 163.984375 218.214844 163.730469 C 218.214844 163.578125 218.242188 163.429688 218.285156 163.273438 C 218.339844 163.117188 218.417969 162.894531 218.527344 162.621094 L 221.292969 155.609375 C 221.371094 155.40625 221.464844 155.164062 221.574219 154.882812 C 221.683594 154.605469 221.800781 154.367188 221.925781 154.179688 C 222.050781 153.992188 222.214844 153.839844 222.421875 153.730469 C 222.625 153.613281 222.878906 153.554688 223.179688 153.554688 C 223.480469 153.554688 223.738281 153.613281 223.941406 153.730469 C 224.144531 153.847656 224.308594 153.992188 224.4375 154.171875 C 224.5625 154.355469 224.667969 154.550781 224.757812 154.761719 C 224.84375 154.96875 224.953125 155.25 225.082031 155.59375 L 227.910156 162.5625 C 228.128906 163.089844 228.242188 163.476562 228.242188 163.71875 C 228.242188 163.957031 228.136719 164.199219 227.929688 164.410156 C 227.71875 164.617188 227.464844 164.722656 227.171875 164.722656 C 227 164.722656 226.851562 164.6875 226.726562 164.628906 C 226.605469 164.570312 226.5 164.488281 226.421875 164.382812 C 226.335938 164.277344 226.246094 164.113281 226.152344 163.894531 C 226.054688 163.675781 225.976562 163.480469 225.90625 163.3125 Z M 221.566406 160.3125 L 224.796875 160.3125 L 223.164062 155.855469 Z M 221.566406 160.3125 " fill-opacity="1" fill-rule="nonzero"/><path fill="#2a70c0" d="M 205.390625 185.542969 C 201.429688 185.542969 198.207031 182.320312 198.207031 178.363281 C 198.207031 174.402344 201.429688 171.179688 205.390625 171.179688 C 209.347656 171.179688 212.570312 174.402344 212.570312 178.363281 C 212.570312 182.320312 209.347656 185.542969 205.390625 185.542969 Z M 205.390625 172.105469 C 201.9375 172.105469 199.132812 174.910156 199.132812 178.363281 C 199.132812 181.8125 201.9375 184.617188 205.390625 184.617188 C 208.839844 184.617188 211.644531 181.8125 211.644531 178.363281 C 211.644531 174.910156 208.839844 172.105469 205.390625 172.105469 Z M 205.390625 172.105469 " fill-opacity="1" fill-rule="nonzero"/><path fill="#e7495a" d="M 245.089844 174.332031 L 257.65625 174.332031 L 257.65625 175.289062 L 245.089844 175.289062 Z M 245.089844 174.332031 " fill-opacity="1" fill-rule="nonzero"/><path fill="#e7495a" d="M 234.019531 174.332031 L 243.167969 174.332031 L 243.167969 175.289062 L 234.019531 175.289062 Z M 234.019531 174.332031 " fill-opacity="1" fill-rule="nonzero"/><path fill="#e7495a" d="M 242.480469 181.429688 L 252.4375 181.429688 L 252.4375 182.386719 L 242.480469 182.386719 Z M 242.480469 181.429688 " fill-opacity="1" fill-rule="nonzero"/><path fill="#e7495a" d="M 234.019531 181.429688 L 240.558594 181.429688 L 240.558594 182.386719 L 234.019531 182.386719 Z M 234.019531 181.429688 " fill-opacity="1" fill-rule="nonzero"/><path fill="#2a70c0" d="M 223.601562 183.410156 L 220.300781 183.410156 C 219.824219 183.410156 219.488281 183.308594 219.285156 183.089844 C 219.082031 182.875 218.976562 182.535156 218.976562 182.074219 L 218.976562 173.957031 C 218.976562 173.484375 219.082031 173.136719 219.292969 172.929688 C 219.5 172.71875 219.839844 172.613281 220.300781 172.613281 L 223.796875 172.613281 C 224.3125 172.613281 224.765625 172.648438 225.140625 172.710938 C 225.519531 172.777344 225.859375 172.902344 226.160156 173.078125 C 226.414062 173.226562 226.644531 173.421875 226.839844 173.660156 C 227.035156 173.894531 227.183594 174.148438 227.289062 174.433594 C 227.394531 174.714844 227.445312 175.015625 227.445312 175.328125 C 227.445312 176.410156 226.902344 177.199219 225.828125 177.703125 C 227.242188 178.152344 227.953125 179.035156 227.953125 180.339844 C 227.953125 180.945312 227.796875 181.488281 227.492188 181.96875 C 227.183594 182.453125 226.765625 182.8125 226.238281 183.039062 C 225.914062 183.175781 225.535156 183.273438 225.101562 183.332031 C 224.679688 183.390625 224.175781 183.417969 223.609375 183.417969 Z M 221.164062 174.257812 L 221.164062 177.050781 L 223.164062 177.050781 C 223.707031 177.050781 224.132812 177 224.429688 176.894531 C 224.730469 176.789062 224.953125 176.59375 225.109375 176.308594 C 225.234375 176.097656 225.292969 175.871094 225.292969 175.617188 C 225.292969 175.066406 225.097656 174.707031 224.710938 174.527344 C 224.328125 174.351562 223.734375 174.257812 222.9375 174.257812 Z M 223.441406 178.617188 L 221.164062 178.617188 L 221.164062 181.765625 L 223.511719 181.765625 C 224.992188 181.765625 225.730469 181.230469 225.730469 180.167969 C 225.730469 179.621094 225.539062 179.230469 225.15625 178.980469 C 224.769531 178.734375 224.203125 178.617188 223.441406 178.617188 Z M 223.441406 178.617188 " fill-opacity="1" fill-rule="nonzero"/><path fill="#2a70c0" d="M 271.160156 166.664062 C 267.199219 166.664062 263.976562 163.441406 263.976562 159.484375 C 263.976562 155.523438 267.199219 152.300781 271.160156 152.300781 C 275.117188 152.300781 278.339844 155.523438 278.339844 159.484375 C 278.339844 163.441406 275.117188 166.664062 271.160156 166.664062 Z M 271.160156 153.226562 C 267.707031 153.226562 264.902344 156.03125 264.902344 159.484375 C 264.902344 162.933594 267.707031 165.738281 271.160156 165.738281 C 274.609375 165.738281 277.414062 162.933594 277.414062 159.484375 C 277.414062 156.03125 274.609375 153.226562 271.160156 153.226562 Z M 271.160156 153.226562 " fill-opacity="1" fill-rule="nonzero"/><path fill="#2a70c0" d="M 275.105469 159.484375 C 275.105469 160.007812 275.003906 160.511719 274.804688 160.992188 C 274.605469 161.476562 274.320312 161.902344 273.949219 162.273438 C 273.578125 162.644531 273.152344 162.929688 272.667969 163.128906 C 272.1875 163.328125 271.683594 163.429688 271.160156 163.429688 C 270.636719 163.429688 270.132812 163.328125 269.648438 163.128906 C 269.164062 162.929688 268.738281 162.644531 268.367188 162.273438 C 268 161.902344 267.714844 161.476562 267.511719 160.992188 C 267.3125 160.511719 267.210938 160.007812 267.210938 159.484375 C 267.210938 158.960938 267.3125 158.457031 267.511719 157.972656 C 267.714844 157.488281 268 157.0625 268.367188 156.691406 C 268.738281 156.324219 269.164062 156.039062 269.648438 155.835938 C 270.132812 155.636719 270.636719 155.535156 271.160156 155.535156 C 271.683594 155.535156 272.1875 155.636719 272.667969 155.835938 C 273.152344 156.039062 273.578125 156.324219 273.949219 156.691406 C 274.320312 157.0625 274.605469 157.488281 274.804688 157.972656 C 275.003906 158.457031 275.105469 158.960938 275.105469 159.484375 Z M 275.105469 159.484375 " fill-opacity="1" fill-rule="nonzero"/><path fill="#e7495a" d="M 310.859375 155.453125 L 323.425781 155.453125 L 323.425781 156.410156 L 310.859375 156.410156 Z M 310.859375 155.453125 " fill-opacity="1" fill-rule="nonzero"/><path fill="#e7495a" d="M 299.785156 155.453125 L 308.929688 155.453125 L 308.929688 156.410156 L 299.785156 156.410156 Z M 299.785156 155.453125 " fill-opacity="1" fill-rule="nonzero"/><path fill="#e7495a" d="M 308.25 162.550781 L 318.207031 162.550781 L 318.207031 163.507812 L 308.25 163.507812 Z M 308.25 162.550781 " fill-opacity="1" fill-rule="nonzero"/><path fill="#e7495a" d="M 299.785156 162.550781 L 306.320312 162.550781 L 306.320312 163.507812 L 299.785156 163.507812 Z M 299.785156 162.550781 " fill-opacity="1" fill-rule="nonzero"/><path fill="#2a70c0" d="M 293.957031 161.128906 C 293.957031 161.472656 293.875 161.84375 293.703125 162.242188 C 293.535156 162.640625 293.265625 163.039062 292.902344 163.421875 C 292.535156 163.808594 292.074219 164.121094 291.511719 164.363281 C 290.945312 164.605469 290.285156 164.722656 289.535156 164.722656 C 288.96875 164.722656 288.445312 164.667969 287.984375 164.558594 C 287.511719 164.449219 287.09375 164.285156 286.710938 164.054688 C 286.332031 163.828125 285.980469 163.527344 285.660156 163.15625 C 285.375 162.816406 285.132812 162.4375 284.929688 162.019531 C 284.726562 161.601562 284.578125 161.152344 284.480469 160.675781 C 284.375 160.199219 284.328125 159.691406 284.328125 159.15625 C 284.328125 158.289062 284.453125 157.507812 284.707031 156.820312 C 284.960938 156.136719 285.320312 155.542969 285.796875 155.058594 C 286.273438 154.578125 286.820312 154.199219 287.453125 153.945312 C 288.085938 153.691406 288.765625 153.558594 289.484375 153.558594 C 290.355469 153.558594 291.132812 153.734375 291.820312 154.082031 C 292.503906 154.425781 293.027344 154.863281 293.390625 155.375 C 293.757812 155.890625 293.9375 156.371094 293.9375 156.828125 C 293.9375 157.074219 293.847656 157.296875 293.671875 157.492188 C 293.496094 157.683594 293.28125 157.78125 293.03125 157.78125 C 292.75 157.78125 292.542969 157.714844 292.40625 157.585938 C 292.269531 157.453125 292.113281 157.226562 291.9375 156.898438 C 291.648438 156.363281 291.316406 155.96875 290.929688 155.699219 C 290.546875 155.433594 290.070312 155.300781 289.503906 155.300781 C 288.601562 155.300781 287.890625 155.640625 287.355469 156.324219 C 286.820312 157.011719 286.554688 157.976562 286.554688 159.234375 C 286.554688 160.078125 286.671875 160.773438 286.90625 161.328125 C 287.140625 161.882812 287.472656 162.300781 287.910156 162.574219 C 288.339844 162.847656 288.851562 162.984375 289.429688 162.984375 C 290.058594 162.984375 290.59375 162.828125 291.023438 162.515625 C 291.460938 162.203125 291.785156 161.746094 292.007812 161.140625 C 292.097656 160.851562 292.214844 160.625 292.351562 160.441406 C 292.492188 160.265625 292.710938 160.175781 293.019531 160.175781 C 293.28125 160.175781 293.5 160.265625 293.691406 160.449219 C 293.878906 160.632812 293.972656 160.851562 293.972656 161.128906 Z M 293.957031 161.128906 " fill-opacity="1" fill-rule="nonzero"/><path fill="#2a70c0" d="M 271.160156 185.542969 C 267.199219 185.542969 263.976562 182.320312 263.976562 178.363281 C 263.976562 174.402344 267.199219 171.179688 271.160156 171.179688 C 275.117188 171.179688 278.339844 174.402344 278.339844 178.363281 C 278.339844 182.320312 275.117188 185.542969 271.160156 185.542969 Z M 271.160156 172.105469 C 267.707031 172.105469 264.902344 174.910156 264.902344 178.363281 C 264.902344 181.8125 267.707031 184.617188 271.160156 184.617188 C 274.609375 184.617188 277.414062 181.8125 277.414062 178.363281 C 277.414062 174.910156 274.609375 172.105469 271.160156 172.105469 Z M 271.160156 172.105469 " fill-opacity="1" fill-rule="nonzero"/><path fill="#e7495a" d="M 310.859375 174.332031 L 323.425781 174.332031 L 323.425781 175.289062 L 310.859375 175.289062 Z M 310.859375 174.332031 " fill-opacity="1" fill-rule="nonzero"/><path fill="#e7495a" d="M 299.785156 174.332031 L 308.929688 174.332031 L 308.929688 175.289062 L 299.785156 175.289062 Z M 299.785156 174.332031 " fill-opacity="1" fill-rule="nonzero"/><path fill="#e7495a" d="M 308.25 181.429688 L 318.207031 181.429688 L 318.207031 182.386719 L 308.25 182.386719 Z M 308.25 181.429688 " fill-opacity="1" fill-rule="nonzero"/><path fill="#e7495a" d="M 299.785156 181.429688 L 306.320312 181.429688 L 306.320312 182.386719 L 299.785156 182.386719 Z M 299.785156 181.429688 " fill-opacity="1" fill-rule="nonzero"/><path fill="#2a70c0" d="M 286.109375 172.613281 L 288.960938 172.613281 C 289.703125 172.613281 290.335938 172.6875 290.867188 172.824219 C 291.394531 172.960938 291.878906 173.222656 292.308594 173.601562 C 293.429688 174.566406 293.996094 176.027344 293.996094 177.988281 C 293.996094 178.636719 293.9375 179.230469 293.828125 179.765625 C 293.71875 180.300781 293.539062 180.78125 293.304688 181.210938 C 293.070312 181.644531 292.769531 182.027344 292.398438 182.367188 C 292.113281 182.628906 291.792969 182.835938 291.445312 182.992188 C 291.101562 183.148438 290.734375 183.261719 290.335938 183.328125 C 289.941406 183.390625 289.496094 183.425781 289 183.425781 L 286.148438 183.425781 C 285.75 183.425781 285.453125 183.367188 285.25 183.242188 C 285.046875 183.125 284.917969 182.953125 284.859375 182.734375 C 284.800781 182.515625 284.765625 182.230469 284.765625 181.882812 L 284.765625 173.964844 C 284.765625 173.496094 284.871094 173.148438 285.085938 172.941406 C 285.296875 172.730469 285.640625 172.621094 286.109375 172.621094 Z M 286.957031 174.34375 L 286.957031 181.675781 L 288.617188 181.675781 C 288.980469 181.675781 289.261719 181.664062 289.46875 181.648438 C 289.679688 181.628906 289.886719 181.578125 290.109375 181.5 C 290.332031 181.421875 290.519531 181.3125 290.683594 181.167969 C 291.414062 180.546875 291.78125 179.484375 291.78125 177.96875 C 291.78125 176.90625 291.617188 176.105469 291.296875 175.578125 C 290.976562 175.046875 290.578125 174.707031 290.109375 174.566406 C 289.640625 174.421875 289.066406 174.351562 288.402344 174.351562 L 286.957031 174.351562 Z M 286.957031 174.34375 " fill-opacity="1" fill-rule="nonzero"/></svg>